<svg version="1.2" xmlns="http://www.w3.org/2000/svg" viewBox="0 0 800 800" width="800" height="800">
	<title>New Project</title>
	<style>
		.s0 { fill: #cc3333 } 
	</style>
	<path id="ION" class="s0" aria-label="ION"  d="m91.4 572v-343.6h-78.3v343.6zm33.9-171.6c0 98.9 77.1 178.3 173.3 178.3 96.2 0 173.3-79.4 173.3-178.3 0-98.9-77.1-178.3-173.3-178.3-96.2 0-173.3 79.4-173.3 178.3zm84.3 0c0-60.8 36.3-102.9 89-102.9 52.7 0 88.9 42.1 88.9 102.9 0 60.8-36.2 102.9-88.9 102.9-52.7 0-89-42.1-89-102.9zm296.2-172v343.6h78.3v-213.3l137.1 213.3h78.3v-343.6h-78.3v213.4l-137.1-213.4z"/>
</svg>